<?xml version="1.0" encoding="utf-8"?>
<!-- Generator: Adobe Illustrator 16.0.3, SVG Export Plug-In . SVG Version: 6.00 Build 0)  -->
<!DOCTYPE svg PUBLIC "-//W3C//DTD SVG 1.1//EN" "http://www.w3.org/Graphics/SVG/1.1/DTD/svg11.dtd">
<svg version="1.1" id="Capa_1" xmlns="http://www.w3.org/2000/svg" xmlns:xlink="http://www.w3.org/1999/xlink" x="0px" y="0px"
	 width="628.254px" height="613.516px" viewBox="0 0 628.254 613.516" enable-background="new 0 0 628.254 613.516"
	 xml:space="preserve">
<g>
	<g>
		<g>
			<g>
				<path fill="#FFFFFF" stroke="#FFFFFF" stroke-miterlimit="10" d="M99.777,446.086c-6.699,12.03-12.031,30.133-12.031,41.539
					c0,2.647,0,6.016,0.656,10.688L4.676,354.32C1.996,349.648,0,342.945,0,336.906c0-6.047,1.996-13.397,4.676-18.077L44.871,248.5
					L0,223.07l146.016-2.702L217,348.281l-45.527-26.116L99.777,446.086z M164.09,40.227c12.715-22.125,33.496-34.18,58.926-34.18
					c27.48,0,48.918,12.742,64.312,38.828l22.777,38.172l-79.051,136.664L103.14,145.359L164.09,40.227z M173.441,561.945
					c-38.172,0-69.645-31.477-69.645-69.647c0-10.72,4.703-28.82,11.402-40.195l21.41-38.172h158.758v148.016L173.441,561.945
					L173.441,561.945z M300.727,36.18C290.691,18.789,277.293,6.703,261.215,0h164.746c14.738,0,26.113,6.047,32.84,17.444
					l40.853,69.648l44.19-26.141l-71.016,127.28l-145.305-2.047l44.87-25.43L300.727,36.18z M554.59,415.273
					c20.07,0,36.832-5.358,50.887-16.055l-83.069,144.647c-6.699,11.375-18.73,18.078-32.789,18.078h-78.396v51.57L336.219,488.28
					l75.004-125.266v52.258L554.59,415.273L554.59,415.273z M618.848,294.711c6.043,10.719,9.406,22.094,9.406,34.156
					c0,24.116-15.422,49.569-36.832,61.602c-10.062,5.391-24.145,8.75-38.172,8.75h-44.242l-79-136.664l127.918-73.008
					L618.848,294.711z"/>
			</g>
		</g>
	</g>
</g>
</svg>
